<?xml version="1.0" encoding="UTF-8"?>
<svg fill="none" viewBox="0 0 320 320" xmlns="http://www.w3.org/2000/svg">
<path d="m320 159.63c0 3.732-0.128 7.433-0.38 11.101v149.27h-319.24v-149.29c-0.2516-3.661-0.37947-7.356-0.37947-11.081 0-3.724 0.12787-7.419 0.37947-11.081v-67.422h-4.88e-4v-80.746h80.649v4.68e-4h67.857c3.672-0.25133 7.378-0.37906 11.113-0.37906 3.736 0 7.442 0.12773 11.113 0.37906h148.5v80.746 0.3781 67.024c0.252 3.668 0.38 7.369 0.38 11.1zm-1.88-78.124v53.572c-2.971-19.201-9.372-37.273-18.559-53.572h18.559zm0 67.077c-1.68-24.276-8.851-47.044-20.283-67.077h-57.367v77.746h77.65v-10.669zm0-68.956h-19.634c-13.956-23.994-33.997-44.028-58.015-57.998v-19.748h77.649v77.746zm-21.372 0c-13.657-23.184-33.069-42.589-56.277-56.26v56.26h56.277zm-58.157-77.746v18.672c-16.407-9.2479-34.613-15.69-53.963-18.672h53.963zm0 20.397c-20.152-11.501-43.077-18.715-67.528-20.397h-10.122v77.746h77.65v-57.35zm-157.18-20.397h53.965c-19.351 2.9825-37.558 9.4244-53.965 18.673v-18.673zm67.529 0c-24.451 1.6816-47.377 8.8959-67.529 20.397v57.349h77.65v-77.746h-10.121zm-69.409-4.7e-4v19.75c-24.018 13.97-44.058 34.003-58.014 57.997h-19.636v-77.746h77.649zm0 21.488c-23.207 13.671-42.618 33.075-56.275 56.258h56.275v-56.258zm-77.649 58.137h18.56c-9.1878 16.302-15.589 34.376-18.56 53.581v-53.581zm0 79.625v9.528c1.7082 24.737 9.1191 47.909 20.931 68.218h56.718v-77.746h-77.649zm0 77.746v-54.703c3.0387 19.646 9.6679 38.11 19.198 54.703h-19.198zm0 1.879h20.294c13.924 23.496 33.713 43.122 57.355 56.875v20.871h-77.649v-77.746zm79.529 77.746v-19.795c18.913 10.661 40.218 17.593 62.911 19.795h-62.911zm0-21.52c22.91 13.076 49.404 20.61 77.65 20.774v-77h-77.65v56.226zm157.18 21.52h-62.909c22.692-2.202 43.996-9.134 62.909-19.794v19.794zm-77.649-0.746c28.245-0.163 54.74-7.698 77.649-20.773v-56.227h-77.649v77zm79.528 0.746v-20.871c23.643-13.752 43.433-33.379 57.357-56.875h20.293v77.746h-77.65zm0-22.609c22.833-13.45 41.991-32.449 55.61-55.137h-55.61v55.137zm0-57.016h56.72c11.809-20.303 19.219-43.469 20.93-68.199v-9.547h-77.65v77.746zm77.65-54.695c-3.04 19.644-9.668 38.104-19.197 54.695h19.197v-54.695zm-294.2 56.574c13.618 22.688 32.776 41.687 55.608 55.136v-55.136h-55.608zm-1.7564-159.25c-11.436 20.038-18.608 42.813-20.284 67.096v10.65h77.649v-77.746h-57.365zm59.244 0h77.65v5.1192h-59.977v72.627h-17.672v-77.746zm17.672 79.625h-17.672v77.746h77.65v-77.746h-34.031v72.059h-25.946v-72.059zm25.946-1.879h34.031v-46.696h-34.031v46.696zm35.911-72.627h63.362v72.627h14.287v-77.746h-77.649v5.1192zm63.362 74.506h14.287v77.746h-77.649v-77.746h37.415v72.059h25.947v-72.059zm-25.947-1.879v-46.696h-37.415v46.696h37.415z" clip-rule="evenodd" fill="#fff" fill-rule="evenodd" opacity=".2"/>
</svg>
