<?xml version="1.0" encoding="UTF-8"?>
<svg viewBox="0 0 38 38" xmlns="http://www.w3.org/2000/svg">
<path d="m19 38c10.493 0 19-8.5066 19-19 0-10.493-8.5066-19-19-19-10.493 0-19 8.5066-19 19 0 10.493 8.5066 19 19 19z" clip-rule="evenodd" fill="#3DDC84" fill-rule="evenodd"/>
<path d="m14.807 21.33c0.6838 0 1.4036 0.2936 2.1954 0.9174 0.9717 0.7706 1.6195 1.1376 1.9794 1.1376 0.5399 0 0.7918-0.2936 0.7918-0.844 0-0.2936-0.144-0.5505-0.4679-0.7707-0.1799-0.11-1.0797-0.477-2.7712-1.0642-2.7352-0.9908-4.1028-2.789-4.1028-5.4679 0-2.0183 0.7198-3.5963 2.1594-4.7339 1.2956-0.99084 2.8431-1.5046 4.7146-1.5046 1.6195 0 3.0231 0.40367 4.2108 1.1743 1.1877 0.7707 1.7995 1.7982 1.7995 3.0459 0 0.7339-0.2159 1.3578-0.6838 1.8715-0.4679 0.5138-1.0437 0.734-1.7635 0.734-0.7558 0-1.5836-0.367-2.5193-1.1009-0.5758-0.4404-1.0077-0.6973-1.2956-0.6973-0.5039 0-0.7558 0.2569-0.7558 0.734 0 0.477 0.6118 0.9174 1.8715 1.2844 1.7275 0.5504 3.0231 1.211 3.9588 2.0183 1.2597 1.0642 1.8715 2.5321 1.8715 4.4404 0 2.0917-0.6838 3.7064-2.0874 4.8807-1.2956 1.1009-2.9872 1.6147-5.0746 1.6147s-3.8149-0.5505-5.1825-1.6881c-1.0797-0.9174-1.6555-1.9449-1.6555-3.1559 0-0.8074 0.2519-1.4679 0.7918-2.0184 0.5758-0.5137 1.2236-0.8073 2.0154-0.8073z" fill="#fff"/>
</svg>
